<?xml version="1.0" standalone="no"?>
<!DOCTYPE svg PUBLIC "-//W3C//DTD SVG 20010904//EN"
 "http://www.w3.org/TR/2001/REC-SVG-20010904/DTD/svg10.dtd">
<svg version="1.0" xmlns="http://www.w3.org/2000/svg"
 width="449.000000pt" height="332.000000pt" viewBox="0 0 449.000000 332.000000"
 preserveAspectRatio="xMidYMid meet">

<g transform="translate(0.000000,332.000000) scale(0.100000,-0.100000)"
fill="#000000" stroke="none">
<path d="M3810 3233 c0 -7 7 -29 15 -49 17 -41 63 -64 125 -64 35 0 41 -3 36
-17 -3 -10 -23 -112 -46 -228 -46 -232 -42 -221 -157 -352 -78 -87 -172 -160
-219 -169 -29 -5 -40 -2 -57 15 -18 18 -23 36 -26 106 -3 95 19 249 49 328 11
28 18 53 15 55 -12 12 -96 -11 -116 -32 l-22 -23 -61 26 c-80 33 -180 35 -247
4 -145 -66 -249 -245 -249 -427 1 -140 54 -213 149 -202 96 13 231 136 333
306 l28 45 0 -80 c1 -95 12 -149 38 -184 70 -95 203 -49 380 129 62 62 92 87
87 71 -4 -13 -8 -57 -8 -96 0 -61 4 -80 26 -118 28 -48 75 -77 124 -77 53 0
134 48 205 121 68 70 187 239 233 330 l25 48 -22 15 c-21 15 -24 11 -124 -138
-57 -84 -121 -172 -144 -195 -68 -70 -148 -91 -186 -50 -32 35 -23 118 56 521
40 208 71 380 69 383 -3 2 -23 -2 -44 -10 -55 -20 -150 -18 -212 4 -43 14 -53
15 -53 4z m-489 -493 c35 -18 65 -34 67 -35 4 -3 -103 -157 -163 -235 -70 -90
-149 -160 -183 -160 -62 0 -89 70 -72 187 16 120 70 218 145 265 44 28 123 19
206 -22z"/>
<path d="M995 3181 c-22 -4 -50 -13 -62 -19 -46 -25 -104 -155 -152 -342 l-28
-105 -157 -3 -157 -3 6 23 c20 90 75 362 72 364 -1 1 -34 -1 -72 -6 -110 -15
-202 -12 -237 6 l-31 16 7 -33 c3 -20 20 -46 38 -63 29 -27 35 -28 95 -23 61
6 63 6 58 -16 -8 -38 -55 -258 -55 -261 0 -2 -26 -6 -58 -9 -77 -6 -112 -26
-140 -76 -13 -23 -22 -41 -20 -41 2 0 32 9 66 20 73 23 132 26 132 8 0 -7 -21
-116 -46 -241 -25 -126 -43 -236 -40 -244 5 -12 15 -14 46 -9 66 10 87 24 83
54 -1 15 16 122 40 237 l43 210 158 3 c148 2 158 1 151 -15 -14 -36 -18 -218
-5 -276 21 -102 92 -156 187 -143 57 8 80 20 103 59 30 49 26 59 -15 41 -74
-31 -135 -5 -155 64 -11 41 -12 153 -2 222 6 38 11 45 32 48 54 6 82 25 101
66 10 22 16 42 14 45 -2 2 -22 -4 -45 -13 -22 -9 -49 -16 -59 -16 -18 0 -18 3
-5 68 30 140 83 270 150 365 37 51 37 51 -41 38z"/>
<path d="M1483 2846 c-163 -53 -283 -240 -283 -440 1 -140 54 -213 149 -202
96 13 231 136 333 306 l28 45 0 -80 c1 -132 24 -194 84 -223 91 -45 298 92
440 291 26 37 49 67 51 67 8 0 78 -182 100 -263 39 -143 39 -144 -57 -241 -66
-66 -95 -88 -141 -105 -62 -23 -120 -27 -161 -11 -23 9 -26 7 -32 -25 -13 -69
24 -102 100 -90 181 28 458 339 651 727 69 139 84 190 63 215 -14 18 -77 47
-85 40 -2 -3 -12 -45 -22 -93 -10 -49 -35 -129 -56 -179 -40 -98 -131 -265
-145 -265 -4 0 -11 17 -15 38 -3 20 -25 93 -47 162 -76 235 -111 289 -180 276
-18 -4 -41 -13 -51 -21 -18 -13 -18 -16 13 -60 l32 -46 -28 -37 c-104 -140
-245 -266 -310 -278 -29 -5 -40 -2 -57 15 -18 18 -23 36 -26 106 -3 95 19 249
49 328 11 28 18 53 15 55 -12 12 -96 -11 -116 -32 l-22 -23 -60 25 c-73 29
-157 37 -214 18z m188 -106 c35 -18 65 -34 67 -35 4 -3 -103 -157 -163 -235
-70 -90 -149 -160 -183 -160 -62 0 -89 70 -72 187 16 120 70 218 145 265 44
28 123 19 206 -22z"/>
<path d="M3104 1591 c-62 -16 -123 -53 -169 -102 -64 -69 -104 -163 -135 -321
-11 -58 -12 -58 -48 -59 -87 -3 -122 -27 -136 -92 l-7 -28 31 16 c34 18 130
32 130 20 0 -28 -166 -213 -241 -269 -75 -56 -122 -68 -152 -37 -18 18 -23 36
-26 106 -3 95 19 249 49 328 11 28 18 53 15 55 -12 12 -96 -11 -116 -32 l-22
-23 -61 26 c-80 33 -180 35 -247 4 -145 -66 -249 -245 -249 -427 1 -140 54
-213 149 -202 96 13 233 137 332 304 l26 44 5 -104 c7 -153 40 -203 132 -203
86 1 216 88 324 216 29 33 52 57 52 52 0 -5 -15 -86 -34 -179 -65 -326 -67
-358 -22 -370 13 -3 42 -1 64 5 40 11 40 12 31 43 -5 17 -6 50 -3 72 7 52 103
555 110 579 5 15 21 17 144 17 l139 0 -26 -57 c-31 -67 -42 -192 -24 -259 58
-216 333 -215 601 3 88 72 201 202 241 279 21 39 22 46 9 54 -27 17 -37 11
-75 -47 -51 -78 -227 -250 -299 -292 -191 -113 -343 -88 -357 59 l-4 35 64 8
c130 16 261 79 317 152 35 46 44 126 20 173 -47 91 -223 94 -352 6 l-51 -34
-165 2 -165 3 28 121 c44 193 95 272 182 281 39 5 49 2 69 -19 13 -13 28 -33
34 -44 11 -18 13 -18 43 11 80 75 -24 160 -155 126z m418 -458 c31 -28 24 -93
-15 -145 -41 -53 -140 -106 -216 -115 l-53 -6 7 34 c11 54 49 132 85 172 60
69 151 98 192 60z m-1331 -43 c35 -18 65 -34 67 -35 4 -3 -103 -157 -163 -235
-70 -90 -149 -160 -183 -160 -62 0 -89 70 -72 187 16 120 70 218 145 265 44
28 123 19 206 -22z"/>
<path d="M1300 1444 c-202 -37 -380 -210 -434 -420 -20 -78 -21 -215 -1 -281
20 -67 88 -143 154 -172 107 -46 254 -36 381 25 119 57 170 107 170 167 0 40
-11 38 -69 -15 -31 -28 -85 -65 -121 -82 -56 -26 -76 -30 -151 -31 -78 0 -90
3 -135 30 -128 80 -150 297 -49 502 65 133 166 212 280 220 76 6 135 -23 185
-90 l35 -48 18 22 c71 88 -1 167 -160 174 -43 2 -89 1 -103 -1z"/>
</g>
</svg>
